<svg xmlns="http://www.w3.org/2000/svg" xmlns:xlink="http://www.w3.org/1999/xlink" width="150" zoomAndPan="magnify" viewBox="0 0 112.5 112.499997" height="150" preserveAspectRatio="xMidYMid meet" version="1.0"><defs><clipPath id="6b674a6d4e"><path d="M 12 2 L 91 2 L 91 111 L 12 111 Z M 12 2 " clip-rule="nonzero"/></clipPath><clipPath id="ce8baf9003"><path d="M 13.359375 112 L 11.207031 3.75 L 89.59375 2.195312 L 91.746094 110.441406 Z M 13.359375 112 " clip-rule="nonzero"/></clipPath><clipPath id="dbf249ccc3"><path d="M 13.359375 112 L 11.207031 3.75 L 89.59375 2.195312 L 91.746094 110.441406 Z M 13.359375 112 " clip-rule="nonzero"/></clipPath></defs><g clip-path="url(#6b674a6d4e)"><g clip-path="url(#ce8baf9003)"><g clip-path="url(#dbf249ccc3)"><path fill="#781fd1" d="M 71.832031 29.179688 C 72.832031 33.75 73.777344 37.875 74.632812 42.003906 C 76.160156 49.363281 77.382812 56.769531 77.722656 64.289062 C 77.824219 66.476562 77.277344 68.710938 77.511719 70.867188 C 78.019531 75.632812 77.144531 80.292969 76.613281 84.949219 C 76.179688 88.695312 75.25 92.457031 74.011719 96.027344 C 71.460938 103.382812 66.066406 107.652344 58.476562 109.289062 C 49.566406 111.21875 41.136719 109.960938 33.121094 105.703125 C 25.640625 101.730469 19.457031 96.15625 13.867188 89.882812 C 13.511719 89.480469 13.242188 88.984375 12.984375 88.507812 C 12.910156 88.378906 13.019531 88.148438 13.046875 87.972656 C 16.726562 85.960938 20.523438 86.386719 23.777344 88.90625 C 28.613281 92.652344 33.464844 96.398438 38.472656 99.910156 C 42.046875 102.414062 46.011719 104.277344 50.230469 105.5625 C 52.585938 106.285156 54.535156 105.902344 56.457031 104.371094 C 59.132812 102.21875 61.042969 99.53125 62.449219 96.449219 C 64.398438 92.175781 65.3125 87.636719 65.804688 82.996094 C 66.597656 75.371094 66.050781 67.785156 65.160156 60.210938 C 63.8125 48.761719 61.46875 37.503906 58.523438 26.375 C 58.335938 25.679688 58.023438 25.023438 57.542969 23.769531 C 57.125 25.191406 56.84375 26.039062 56.617188 26.890625 C 55.472656 31.199219 54.390625 35.523438 53.195312 39.8125 C 52.097656 43.75 51.550781 44.085938 47.542969 43.816406 C 42.441406 43.476562 42.046875 42.953125 43.015625 37.980469 C 44.351562 31.140625 45.753906 24.324219 46.957031 17.457031 C 47.628906 13.621094 47.949219 9.722656 48.441406 5.855469 C 48.550781 4.964844 48.734375 4.085938 48.910156 3.035156 C 51.394531 3.019531 53.683594 2.753906 55.886719 3.066406 C 59.363281 3.558594 62.480469 4.671875 64.640625 7.988281 C 67.011719 11.628906 69.960938 14.886719 72.640625 18.328125 C 75.746094 22.316406 79.484375 25.644531 83.515625 28.632812 C 84.675781 29.492188 86.117188 29.992188 87.441406 30.625 C 88.308594 31.042969 89.199219 31.402344 90.347656 31.898438 C 88.820312 33.425781 87.320312 33.574219 85.738281 33.519531 C 81.765625 33.402344 78.039062 32.40625 74.546875 30.519531 C 73.757812 30.121094 72.960938 29.746094 71.832031 29.179688 Z M 74.398438 48.0625 C 74.445312 47.191406 74.660156 46.289062 74.503906 45.460938 C 73.742188 41.511719 72.878906 37.578125 72.019531 33.628906 C 71.621094 32.257812 71.222656 30.882812 70.828125 29.511719 C 70.648438 29.578125 70.472656 29.648438 70.304688 29.714844 C 70.898438 31.03125 71.503906 32.351562 72.097656 33.671875 C 72.050781 34.449219 71.832031 35.265625 71.972656 36.007812 C 72.75 40.050781 73.621094 44.070312 74.476562 48.101562 C 74.746094 49.742188 75.011719 51.378906 75.28125 53.019531 C 75.507812 52.957031 75.738281 52.894531 75.964844 52.832031 C 75.445312 51.242188 74.921875 49.652344 74.398438 48.0625 Z M 76.824219 61.34375 C 76.691406 61.332031 76.546875 61.320312 76.414062 61.316406 C 76.433594 61.722656 76.464844 62.121094 76.488281 62.523438 C 76.585938 62.523438 76.679688 62.519531 76.777344 62.519531 C 76.792969 62.132812 76.804688 61.734375 76.824219 61.34375 Z M 76.824219 61.34375 " fill-opacity="1" fill-rule="nonzero"/></g></g></g></svg>