<svg xmlns="http://www.w3.org/2000/svg" xmlns:xlink="http://www.w3.org/1999/xlink" width="50" zoomAndPan="magnify" viewBox="0 0 37.5 37.499999" height="50" preserveAspectRatio="xMidYMid meet" version="1.0"><defs><clipPath id="231c3b47f8"><path d="M 0 0 L 37 0 L 37 31.824219 L 0 31.824219 Z M 0 0 " clip-rule="nonzero"/></clipPath><clipPath id="1d6b1b7200"><path d="M 0 0.00390625 L 37 0.00390625 L 37 31.828125 L 0 31.828125 Z M 0 0.00390625 " clip-rule="nonzero"/></clipPath></defs><g clip-path="url(#231c3b47f8)"><path fill="#fcb42f" d="M 23.671875 12.648438 C 23.632812 12.632812 23.617188 12.683594 23.636719 12.707031 C 23.847656 12.972656 24.097656 13.203125 24.363281 13.421875 L 24.359375 13.425781 C 24.582031 13.5625 28.617188 16.523438 31.402344 20.6875 C 32.328125 22.078125 34.433594 24.757812 31.4375 24.894531 C 26.792969 25.105469 23.003906 22.8125 21.324219 19.792969 C 21.390625 19.644531 21.425781 19.542969 21.445312 19.46875 C 21.941406 20.253906 22.621094 21.09375 23.566406 21.886719 C 25.042969 23.121094 27.148438 24.238281 29.109375 24.464844 C 29.578125 24.519531 29.980469 24.535156 30.328125 24.539062 C 31.015625 24.535156 31.472656 24.496094 31.757812 24.464844 C 32.042969 24.4375 32.15625 24.417969 32.15625 24.417969 C 32.15625 24.417969 32.039062 24.414062 31.75 24.410156 C 31.460938 24.402344 31 24.398438 30.3125 24.355469 C 29.96875 24.328125 29.570312 24.289062 29.117188 24.214844 C 27.230469 23.902344 25.144531 22.75 23.746094 21.566406 C 22.898438 20.847656 22.183594 20.019531 21.589844 19.074219 C 21.589844 17.925781 21.492188 17.910156 20.558594 16.984375 C 20.472656 16.652344 20.40625 16.378906 20.367188 16.167969 C 20.339844 16.011719 20.320312 15.890625 20.308594 15.808594 C 20.296875 15.726562 20.289062 15.683594 20.289062 15.683594 C 20.289062 15.683594 20.277344 15.726562 20.261719 15.808594 C 20.246094 15.890625 20.226562 16.015625 20.222656 16.175781 C 20.214844 16.3125 20.21875 16.476562 20.234375 16.660156 C 20.136719 16.566406 20.039062 16.472656 19.941406 16.378906 C 19.832031 15.816406 19.808594 15.347656 19.800781 15.015625 C 19.800781 14.828125 19.804688 14.683594 19.804688 14.585938 C 19.808594 14.484375 19.808594 14.433594 19.808594 14.433594 C 19.808594 14.433594 19.792969 14.480469 19.761719 14.578125 C 19.730469 14.671875 19.691406 14.8125 19.65625 15.003906 C 19.609375 15.265625 19.570312 15.625 19.601562 16.054688 C 19.566406 16.019531 19.535156 15.984375 19.507812 15.945312 C 19.152344 15.429688 19.445312 14.570312 19.519531 14.007812 C 19.621094 13.226562 19.757812 12.449219 19.828125 11.664062 C 19.910156 10.765625 19.960938 10.195312 21.746094 10.355469 C 24.910156 10.644531 25.3125 10.34375 26.699219 10.636719 C 30.507812 11.4375 33.324219 14.929688 35.050781 18.460938 C 34.292969 17.292969 33.242188 16.539062 32.0625 15.742188 C 30.355469 14.589844 28.292969 13.449219 26.273438 12.800781 C 28.328125 13.871094 29.796875 14.617188 31.914062 16.050781 C 32.8125 16.660156 33.789062 17.335938 34.488281 18.160156 C 35.054688 18.835938 35.359375 19.445312 35.570312 19.90625 C 35.617188 20.011719 35.65625 20.105469 35.695312 20.191406 C 35.761719 20.546875 35.820312 20.902344 35.941406 21.28125 C 34.640625 17.132812 27.921875 14.058594 23.671875 12.648438 Z M 34.464844 22.746094 C 34.148438 22.949219 33.828125 22.898438 33.484375 22.972656 C 33.449219 22.976562 33.425781 22.996094 33.40625 23.015625 C 32.230469 20.8125 30.699219 18.695312 28.84375 16.761719 C 31.464844 19.050781 32.851562 20.917969 33.460938 21.625 C 33.347656 21.484375 31.164062 18.023438 27.058594 14.832031 C 28.386719 15.773438 29.398438 16.558594 29.972656 16.988281 C 29.042969 16.046875 28.203125 15.238281 26.726562 14.136719 C 27.683594 14.601562 32.875 17.472656 34.496094 19.753906 C 35.179688 20.714844 35.449219 22.117188 34.464844 22.746094 Z M 24.035156 28.941406 C 20.160156 31.820312 15.238281 31.398438 12.535156 30.398438 C 11.523438 30.023438 10.355469 29.367188 10.269531 28.160156 C 10.199219 27.121094 10.976562 26.210938 11.859375 25.660156 C 14.578125 23.949219 17.605469 25.398438 20.007812 24.910156 C 21.234375 24.660156 22.332031 23.878906 23.601562 23.808594 C 24.710938 23.746094 26.105469 24.5 26.320312 25.671875 C 26.578125 27.082031 25.023438 28.207031 24.035156 28.941406 Z M 4.007812 25.90625 C 8.761719 26.230469 17.730469 21.5 19.289062 19.675781 C 19.757812 19.582031 20.203125 19.5 20.675781 19.441406 C 20.519531 19.972656 20.382812 20.613281 20.175781 21.078125 C 19.515625 22.605469 18.730469 23.226562 16.90625 24.386719 C 16.316406 24.332031 15.738281 24.289062 15.164062 24.292969 C 16.171875 23.777344 17.285156 23.070312 18.148438 22.3125 C 18.273438 22.203125 18.324219 22.15625 18.324219 22.15625 C 18.324219 22.15625 18.261719 22.191406 18.121094 22.285156 C 16.929688 23.058594 15.910156 23.6875 14.542969 24.316406 C 14.066406 24.351562 13.597656 24.425781 13.132812 24.554688 C 13.238281 24.515625 13.339844 24.472656 13.445312 24.425781 C 15.242188 23.664062 16.808594 22.679688 17.878906 21.808594 C 18.257812 21.507812 18.492188 21.285156 18.640625 21.148438 C 18.785156 21.007812 18.839844 20.949219 18.839844 20.949219 C 18.839844 20.949219 18.769531 20.992188 18.601562 21.109375 C 18.519531 21.167969 18.410156 21.242188 18.273438 21.335938 C 18.136719 21.433594 17.96875 21.542969 17.765625 21.679688 C 16.464844 22.5625 14.917969 23.4375 13.269531 24.132812 C 10.875 25.148438 9.191406 25.484375 7.515625 25.925781 C 7.679688 25.902344 9.328125 25.917969 12.09375 24.949219 C 11.742188 25.121094 11.394531 25.339844 11.078125 25.597656 C 10.097656 25.875 10.066406 25.859375 8.757812 26.195312 C 8.851562 26.179688 9.492188 26.167969 10.75 25.894531 C 10.4375 26.203125 10.175781 26.558594 10 26.953125 C 6.464844 27.304688 4.253906 25.992188 4.007812 25.90625 Z M 1.574219 22.914062 C 2.0625 23.769531 3.195312 24.070312 4.152344 24.167969 C 5.066406 24.261719 5.957031 24.273438 6.808594 24.230469 C 6.488281 24.277344 6.140625 24.316406 5.757812 24.34375 C 4.894531 24.398438 4.207031 24.347656 3.671875 24.265625 C 3.132812 24.1875 2.746094 24.082031 2.464844 23.996094 C 2.324219 23.953125 2.210938 23.917969 2.121094 23.886719 C 2.027344 23.855469 1.957031 23.828125 1.902344 23.808594 C 1.796875 23.773438 1.757812 23.761719 1.757812 23.761719 C 1.757812 23.761719 1.804688 23.792969 1.921875 23.863281 C 2.035156 23.933594 2.226562 24.035156 2.519531 24.15625 C 2.816406 24.273438 3.21875 24.40625 3.761719 24.503906 C 4.300781 24.597656 4.984375 24.65625 5.808594 24.597656 C 6.632812 24.542969 7.59375 24.382812 8.804688 24.023438 C 11.191406 23.652344 13.09375 22.917969 14.039062 22.492188 C 11.542969 23.75 7.355469 25.46875 4.660156 25.433594 C 2.550781 25.410156 0.378906 24.242188 1.574219 22.914062 Z M 1.847656 21.820312 C 1.898438 20.910156 2.535156 20.425781 3.125 19.878906 C 4.121094 20.136719 5.753906 20.277344 6.785156 20.339844 C 4.652344 20.398438 4.765625 20.476562 4.667969 20.484375 C 4.679688 20.484375 7.152344 20.941406 9.9375 20.449219 C 11.113281 20.457031 12.355469 20.433594 13.589844 20.367188 C 12.039062 20.621094 10.722656 20.765625 9.691406 20.859375 C 8.414062 20.972656 7.488281 21.011719 7 21.039062 C 7.21875 21.046875 8.1875 21.101562 9.703125 21.050781 C 12.148438 20.96875 14.679688 20.710938 17.050781 20.101562 C 17.210938 20.058594 17.371094 20.019531 17.53125 19.976562 C 17.066406 20.09375 16.574219 20.390625 16.128906 20.574219 C 14.078125 21.351562 12.3125 21.945312 9.652344 22.421875 C 7.992188 22.714844 6.660156 22.820312 5.601562 22.878906 C 5.472656 22.882812 5.34375 22.890625 5.21875 22.898438 C 5.097656 22.902344 4.976562 22.90625 4.863281 22.910156 C 4.632812 22.914062 4.414062 22.921875 4.21875 22.925781 C 2.804688 22.953125 2.546875 22.558594 2.199219 21.984375 C 2.34375 22.59375 2.804688 22.917969 3.382812 23.054688 C 4.15625 23.242188 7.386719 23.210938 9.769531 22.746094 C 12.269531 22.296875 14.207031 21.640625 16.210938 20.722656 C 16.496094 20.582031 16.730469 20.460938 16.925781 20.367188 C 17.117188 20.261719 17.269531 20.175781 17.382812 20.113281 C 17.515625 20.035156 17.601562 19.988281 17.648438 19.957031 C 17.691406 19.953125 17.730469 19.945312 17.773438 19.9375 C 11.863281 23.789062 5.898438 24.21875 3.367188 23.542969 C 2.527344 23.316406 1.792969 22.777344 1.847656 21.820312 Z M 21.027344 20.269531 C 21.839844 21.570312 22.78125 22.527344 23.949219 23.332031 C 23.867188 23.339844 23.160156 23.226562 21.675781 23.796875 C 20.140625 24.390625 19.636719 24.636719 17.730469 24.472656 C 18.25 24.113281 18.742188 23.730469 19.214844 23.332031 C 19.808594 22.828125 20.199219 22.167969 20.503906 21.457031 C 20.78125 20.820312 20.957031 20.425781 21.027344 20.269531 Z M 0.996094 18.566406 C 0.808594 17.9375 1.761719 17.699219 2.132812 17.46875 C 4.265625 16.152344 2.898438 15.570312 8.464844 14.207031 C 11.226562 13.53125 14.417969 13.664062 17.019531 14.867188 C 17.824219 15.242188 18.535156 15.78125 19.195312 16.367188 C 19.53125 16.664062 19.839844 17.007812 20.1875 17.292969 C 20.464844 17.523438 21.191406 18.121094 20.886719 18.554688 C 20.773438 18.707031 20.476562 18.75 20.308594 18.796875 C 19.972656 18.894531 19.628906 18.976562 19.289062 19.058594 C 17.933594 19.382812 16.554688 19.617188 15.164062 19.761719 C 13.332031 19.953125 5.785156 20.28125 2.902344 19.269531 C 2.542969 19.144531 1.121094 18.976562 0.996094 18.566406 Z M 17.066406 14.320312 C 15.933594 13.808594 14.785156 13.539062 13.5625 13.390625 C 14.152344 13.355469 14.816406 13.285156 15.542969 13.148438 C 16.03125 13.53125 16.539062 13.921875 17.066406 14.320312 Z M 4.203125 5.921875 C 4.078125 5.082031 4.019531 4.1875 4.070312 3.363281 C 4.082031 3.363281 10.714844 2.144531 16.46875 6.96875 C 17.535156 7.863281 19.167969 10.113281 19.625 10.535156 C 19.152344 11.285156 19.578125 11.898438 19.234375 13.136719 C 19.175781 13.351562 18.71875 15.058594 18.847656 15.152344 C 18.441406 14.855469 18.035156 14.554688 17.628906 14.253906 C 17.410156 14.09375 17.382812 14.054688 17.402344 13.777344 C 17.417969 13.554688 17.460938 13.332031 17.476562 13.109375 C 17.5 12.730469 17.507812 12.347656 17.496094 11.964844 C 17.472656 11.210938 17.386719 10.4375 17.199219 9.703125 C 17.148438 9.5 17.121094 9.398438 17.121094 9.398438 C 17.121094 9.398438 17.132812 9.503906 17.15625 9.710938 C 17.289062 11.097656 17.296875 12.378906 17.09375 13.855469 C 16.183594 13.171875 15.320312 12.515625 14.511719 11.882812 C 14.609375 8.890625 13.753906 6.75 13.730469 6.660156 C 13.765625 6.878906 14.289062 8.949219 14.210938 11.652344 C 13.070312 10.761719 12.03125 9.933594 11.097656 9.175781 C 10.441406 6.808594 9.457031 5.453125 9.402344 5.347656 C 9.507812 5.605469 10.148438 6.980469 10.683594 8.839844 C 8.1875 6.800781 6.644531 5.457031 4.949219 3.988281 C 5.238281 4.261719 6.488281 5.488281 8.550781 7.324219 C 6.820312 7.054688 5.714844 6.6875 5.058594 6.507812 C 5.214844 6.570312 6.296875 7.164062 8.707031 7.515625 C 11.089844 9.542969 12.238281 10.492188 12.25 10.503906 C 9.660156 10.722656 7.726562 10.273438 7.511719 10.25 C 7.585938 10.265625 9.675781 11.054688 12.53125 10.785156 C 12.53125 10.785156 14.253906 12.136719 15.21875 12.894531 C 15.058594 12.769531 14.53125 13.09375 12.691406 13.207031 C 9.878906 13.375 9.800781 13.460938 9.691406 13.402344 C 9.429688 13.261719 9.15625 13.132812 8.902344 12.980469 C 6.339844 11.414062 4.648438 8.859375 4.203125 5.921875 Z M 20.660156 0.515625 C 21.230469 0.859375 27.183594 1.964844 29.6875 11.292969 C 27.976562 10.257812 26.59375 10.039062 25.40625 10.007812 C 25.664062 9.707031 25.855469 9.398438 25.996094 9.109375 C 26.167969 8.742188 26.261719 8.410156 26.3125 8.136719 C 26.367188 7.863281 26.375 7.652344 26.382812 7.507812 C 26.382812 7.363281 26.378906 7.292969 26.378906 7.292969 C 26.378906 7.292969 26.363281 7.363281 26.335938 7.503906 C 26.304688 7.640625 26.257812 7.847656 26.171875 8.101562 C 26 8.601562 25.671875 9.328125 24.992188 10.007812 C 24.597656 10.007812 24.226562 10.023438 23.871094 10.027344 C 23.160156 8.273438 23.453125 8.757812 23.886719 7.378906 C 24.0625 6.824219 24.167969 6.242188 24.191406 5.65625 C 24.207031 5.296875 24.1875 5.023438 24.171875 4.835938 C 24.152344 4.652344 24.136719 4.558594 24.136719 4.558594 C 24.136719 4.558594 24.132812 4.652344 24.125 4.839844 C 24.113281 5.023438 24.097656 5.292969 24.046875 5.644531 C 23.949219 6.296875 23.738281 7.234375 23.1875 8.273438 C 21.859375 4.695312 21.167969 1.789062 21.0625 1.425781 C 21.089844 1.554688 21.347656 3.457031 22.109375 6.125 C 20.5 4.601562 19.492188 3.792969 19.492188 3.792969 C 19.492188 3.792969 20.464844 4.9375 22.285156 6.714844 C 22.578125 7.6875 22.945312 8.769531 23.40625 9.941406 C 20.972656 9.359375 19.683594 7.78125 19.597656 7.726562 C 19.667969 7.78125 20.453125 9.125 22.4375 9.9375 C 21.425781 9.828125 20.585938 9.703125 19.992188 10.132812 C 19.707031 9.53125 19.082031 8.851562 18.4375 8.179688 C 18.761719 2.722656 20.234375 1.5 20.660156 0.515625 Z M 33.152344 14.464844 C 31.304688 12.183594 30.320312 11.976562 30.328125 11.714844 C 30.390625 9.902344 27.375 2.167969 20.460938 0.03125 C 20.460938 0.03125 17.757812 4.273438 17.949219 7.800781 C 17.652344 7.519531 17.230469 7.027344 16.914062 6.769531 C 12.59375 3.253906 7.085938 2.28125 3.832031 3.132812 C 3.105469 6.46875 4.503906 10.878906 8.371094 13.371094 C 8.46875 13.4375 8.574219 13.503906 8.683594 13.574219 C 8.484375 13.449219 4.941406 14.304688 3.214844 15.855469 C 2.925781 16.117188 2.648438 16.550781 2.363281 16.792969 C 2.09375 17.027344 1.617188 17.21875 1.308594 17.390625 C 0.632812 17.773438 0 18.265625 0.609375 19.035156 C 0.863281 19.355469 2.164062 19.539062 2.570312 19.699219 C 1.605469 20.390625 1.03125 21.691406 1.488281 22.746094 C 1.472656 22.746094 1.457031 22.746094 1.441406 22.753906 C 0.355469 23.328125 0.753906 24.667969 1.640625 25.210938 C 1.992188 25.429688 2.371094 25.585938 2.769531 25.699219 C 4.179688 26.820312 6.839844 27.722656 9.828125 27.472656 C 9.058594 30.015625 12.589844 31.242188 15.269531 31.503906 C 21.054688 32.070312 24.078125 29.4375 24.179688 29.367188 C 25.976562 28.070312 27.730469 26.453125 26.363281 24.601562 C 28.132812 25.289062 29.863281 25.480469 31.753906 25.375 C 32.773438 25.316406 34.132812 24.683594 33.726562 23.449219 C 34.648438 22.957031 35.699219 22.957031 36.210938 21.886719 C 37.007812 20.222656 34.496094 16.121094 33.152344 14.464844 " fill-opacity="1" fill-rule="nonzero"/></g><path fill="#fcb42f" d="M 16.859375 18.96875 C 17.46875 18.863281 17.875 18.777344 18.125 18.714844 C 18.378906 18.65625 18.480469 18.628906 18.480469 18.628906 C 18.480469 18.628906 18.375 18.644531 18.113281 18.675781 C 17.855469 18.714844 17.441406 18.769531 16.820312 18.84375 C 13.292969 19.261719 6.882812 19.550781 3.59375 18.066406 C 3.488281 18.019531 3.398438 17.96875 3.316406 17.929688 C 3.234375 17.882812 3.160156 17.847656 3.097656 17.8125 C 3.035156 17.777344 2.980469 17.746094 2.9375 17.71875 C 2.75 17.613281 2.683594 17.578125 2.683594 17.578125 C 2.683594 17.578125 2.769531 17.640625 2.972656 17.792969 C 5.953125 19.9375 13.308594 19.582031 16.859375 18.96875 " fill-opacity="1" fill-rule="nonzero"/><path fill="#fcb42f" d="M 25.621094 21.734375 C 25.007812 21.328125 24.277344 20.765625 23.507812 19.949219 C 21.90625 18.242188 21.5 17.085938 20.699219 15.492188 C 20.851562 15.933594 20.675781 16.117188 21.683594 18.09375 C 22.039062 18.710938 22.53125 19.449219 23.273438 20.230469 C 23.367188 20.339844 23.472656 20.433594 23.570312 20.53125 C 23.671875 20.625 23.765625 20.71875 23.863281 20.808594 C 24.058594 20.980469 24.25 21.140625 24.433594 21.289062 C 24.621094 21.429688 24.804688 21.5625 24.972656 21.6875 C 25.152344 21.800781 25.320312 21.910156 25.480469 22.011719 C 27.058594 22.9375 28.058594 23.046875 28.160156 23.078125 C 28.160156 23.078125 28.097656 23.046875 27.933594 22.972656 C 27.09375 22.609375 26.472656 22.292969 25.621094 21.734375 " fill-opacity="1" fill-rule="nonzero"/><path fill="#fcb42f" d="M 20.425781 11.277344 C 20.363281 11.316406 20.347656 11.335938 20.347656 11.335938 C 20.527344 11.289062 20.660156 11.253906 20.859375 11.222656 C 21.460938 11.136719 22.058594 11.207031 22.894531 11.230469 C 25.0625 11.304688 25.609375 11.175781 25.609375 11.175781 C 25.292969 11.167969 21.453125 10.605469 20.425781 11.277344 " fill-opacity="1" fill-rule="nonzero"/><path fill="#fcb42f" d="M 20.898438 29.660156 C 20.042969 29.941406 18.949219 30.207031 17.578125 30.28125 C 15.539062 30.390625 13.65625 30.050781 11.835938 29.347656 C 11.695312 29.289062 11.582031 29.25 11.5 29.21875 C 11.328125 29.15625 11.269531 29.140625 11.269531 29.140625 C 11.269531 29.140625 11.34375 29.1875 11.53125 29.292969 C 11.625 29.34375 11.746094 29.410156 11.898438 29.496094 C 11.9375 29.515625 11.976562 29.539062 12.019531 29.558594 C 13.820312 30.359375 15.425781 30.746094 17.652344 30.617188 C 17.824219 30.617188 17.996094 30.589844 18.160156 30.574219 C 18.328125 30.554688 18.488281 30.539062 18.648438 30.519531 C 18.960938 30.464844 19.257812 30.414062 19.539062 30.355469 C 19.820312 30.285156 20.082031 30.21875 20.332031 30.152344 C 20.574219 30.070312 20.804688 29.992188 21.023438 29.921875 C 22.933594 29.1875 23.496094 28.5625 24.0625 28.160156 C 24.0625 28.160156 23.984375 28.199219 23.796875 28.3125 C 22.847656 28.882812 22.085938 29.257812 20.898438 29.660156 " fill-opacity="1" fill-rule="nonzero"/><path fill="#fcb42f" d="M 18.785156 28.460938 C 18.671875 28.484375 18.5625 28.507812 18.460938 28.527344 C 18.355469 28.546875 18.261719 28.5625 18.171875 28.578125 C 17.996094 28.617188 17.847656 28.636719 17.71875 28.660156 C 17.464844 28.707031 17.304688 28.730469 17.207031 28.753906 C 17.109375 28.777344 17.074219 28.789062 17.074219 28.789062 C 17.257812 28.804688 17.445312 28.832031 17.824219 28.820312 C 19.9375 28.753906 22.414062 27.890625 23.96875 26.308594 C 23.453125 26.609375 23.3125 26.6875 23.300781 26.695312 C 21.78125 27.59375 20.40625 28.109375 18.785156 28.460938 " fill-opacity="1" fill-rule="nonzero"/><path fill="#fcb42f" d="M 13.550781 25.835938 C 15.140625 25.550781 16.328125 26.0625 17.976562 26.210938 C 21.1875 26.488281 23.171875 25.257812 23.183594 25.253906 C 22.839844 25.324219 20.738281 26.117188 17.96875 25.871094 C 17.117188 25.792969 16.261719 25.597656 15.414062 25.53125 C 13.703125 25.382812 13.066406 25.972656 13.023438 25.988281 C 13.023438 25.988281 13.089844 25.96875 13.242188 25.917969 C 13.320312 25.886719 13.421875 25.871094 13.550781 25.835938 " fill-opacity="1" fill-rule="nonzero"/><path fill="#fcb42f" d="M 7.109375 15.269531 C 7.25 15.21875 7.429688 15.175781 7.640625 15.109375 C 10.304688 14.367188 12.503906 14.324219 15.121094 14.839844 C 16.757812 15.207031 17.492188 15.550781 18.054688 15.742188 C 17.898438 15.675781 17.015625 15.09375 15.144531 14.621094 C 12.757812 14.03125 9.976562 14.089844 7.460938 15.03125 C 7.363281 15.070312 7.273438 15.105469 7.195312 15.132812 C 7.117188 15.167969 7.046875 15.203125 6.984375 15.230469 C 6.859375 15.289062 6.765625 15.332031 6.695312 15.367188 C 6.550781 15.4375 6.503906 15.46875 6.503906 15.46875 C 6.503906 15.46875 6.578125 15.445312 6.757812 15.386719 C 6.847656 15.355469 6.960938 15.320312 7.109375 15.269531 " fill-opacity="1" fill-rule="nonzero"/><path fill="#fcb42f" d="M 21.40625 12.273438 C 22.042969 12.824219 20.726562 11.695312 22.632812 13.328125 C 26.003906 16.273438 28.441406 18.75 31.445312 22.660156 C 31.828125 23.152344 32.082031 23.480469 32.238281 23.683594 C 32.398438 23.886719 32.46875 23.96875 32.46875 23.96875 C 32.46875 23.96875 32.417969 23.875 32.285156 23.648438 C 32.148438 23.421875 31.933594 23.0625 31.582031 22.539062 C 29.503906 19.386719 26.8125 16.519531 23.898438 14.070312 C 23.71875 13.929688 23.550781 13.796875 23.398438 13.671875 C 22.351562 12.835938 21.417969 12.28125 21.40625 12.273438 " fill-opacity="1" fill-rule="nonzero"/><g clip-path="url(#1d6b1b7200)"><path fill="#fcb42f" d="M 23.671875 12.648438 C 23.632812 12.636719 23.617188 12.683594 23.636719 12.710938 C 23.847656 12.976562 24.097656 13.207031 24.363281 13.421875 L 24.359375 13.425781 C 24.582031 13.566406 28.617188 16.527344 31.402344 20.691406 C 32.328125 22.078125 34.433594 24.757812 31.4375 24.894531 C 26.792969 25.109375 23.003906 22.8125 21.324219 19.792969 C 21.390625 19.648438 21.425781 19.546875 21.445312 19.472656 C 21.941406 20.257812 22.621094 21.09375 23.566406 21.890625 C 25.042969 23.125 27.148438 24.238281 29.109375 24.46875 C 29.578125 24.523438 29.980469 24.539062 30.328125 24.539062 C 31.015625 24.539062 31.472656 24.496094 31.757812 24.46875 C 32.042969 24.4375 32.15625 24.421875 32.15625 24.421875 C 32.15625 24.421875 32.039062 24.417969 31.75 24.410156 C 31.460938 24.40625 31 24.402344 30.3125 24.355469 C 29.96875 24.332031 29.570312 24.292969 29.117188 24.214844 C 27.230469 23.90625 25.144531 22.753906 23.746094 21.570312 C 22.898438 20.847656 22.183594 20.019531 21.589844 19.078125 C 21.589844 17.929688 21.492188 17.914062 20.558594 16.984375 C 20.472656 16.65625 20.40625 16.382812 20.367188 16.167969 C 20.339844 16.015625 20.320312 15.894531 20.308594 15.8125 C 20.296875 15.730469 20.289062 15.6875 20.289062 15.6875 C 20.289062 15.6875 20.277344 15.730469 20.261719 15.8125 C 20.246094 15.894531 20.226562 16.019531 20.222656 16.179688 C 20.214844 16.316406 20.21875 16.480469 20.234375 16.664062 C 20.136719 16.570312 20.039062 16.476562 19.941406 16.382812 C 19.832031 15.820312 19.808594 15.351562 19.800781 15.019531 C 19.800781 14.832031 19.804688 14.683594 19.804688 14.585938 C 19.808594 14.488281 19.808594 14.4375 19.808594 14.4375 C 19.808594 14.4375 19.792969 14.484375 19.761719 14.578125 C 19.730469 14.675781 19.691406 14.816406 19.65625 15.003906 C 19.609375 15.265625 19.570312 15.625 19.601562 16.054688 C 19.566406 16.019531 19.535156 15.984375 19.507812 15.945312 C 19.152344 15.429688 19.445312 14.570312 19.519531 14.011719 C 19.621094 13.230469 19.757812 12.453125 19.828125 11.667969 C 19.910156 10.765625 19.960938 10.195312 21.746094 10.359375 C 24.910156 10.648438 25.3125 10.34375 26.699219 10.636719 C 30.507812 11.441406 33.324219 14.933594 35.050781 18.460938 C 34.292969 17.296875 33.242188 16.542969 32.0625 15.742188 C 30.355469 14.59375 28.292969 13.449219 26.273438 12.800781 C 28.328125 13.875 29.796875 14.621094 31.914062 16.050781 C 32.8125 16.660156 33.789062 17.335938 34.488281 18.164062 C 35.054688 18.839844 35.359375 19.449219 35.570312 19.910156 C 35.617188 20.011719 35.65625 20.105469 35.695312 20.195312 C 35.761719 20.546875 35.820312 20.90625 35.941406 21.285156 C 34.640625 17.136719 27.921875 14.058594 23.671875 12.648438 Z M 34.464844 22.746094 C 34.148438 22.949219 33.828125 22.902344 33.484375 22.972656 C 33.449219 22.980469 33.425781 22.996094 33.40625 23.015625 C 32.230469 20.816406 30.699219 18.695312 28.84375 16.761719 C 31.464844 19.054688 32.851562 20.921875 33.460938 21.625 C 33.347656 21.488281 31.164062 18.027344 27.058594 14.832031 C 28.386719 15.777344 29.398438 16.5625 29.972656 16.992188 C 29.042969 16.050781 28.203125 15.238281 26.726562 14.136719 C 27.683594 14.605469 32.875 17.476562 34.496094 19.757812 C 35.179688 20.71875 35.449219 22.121094 34.464844 22.746094 Z M 24.035156 28.945312 C 20.160156 31.824219 15.238281 31.402344 12.535156 30.402344 C 11.523438 30.027344 10.355469 29.371094 10.269531 28.164062 C 10.199219 27.125 10.976562 26.214844 11.859375 25.660156 C 14.578125 23.949219 17.605469 25.402344 20.007812 24.910156 C 21.234375 24.660156 22.332031 23.878906 23.601562 23.808594 C 24.710938 23.75 26.105469 24.5 26.320312 25.675781 C 26.578125 27.085938 25.023438 28.207031 24.035156 28.945312 Z M 4.007812 25.910156 C 8.761719 26.234375 17.730469 21.503906 19.289062 19.675781 C 19.757812 19.585938 20.203125 19.503906 20.675781 19.441406 C 20.519531 19.972656 20.382812 20.613281 20.175781 21.078125 C 19.515625 22.609375 18.730469 23.226562 16.90625 24.390625 C 16.316406 24.332031 15.738281 24.292969 15.164062 24.296875 C 16.171875 23.777344 17.285156 23.070312 18.148438 22.316406 C 18.273438 22.207031 18.324219 22.160156 18.324219 22.160156 C 18.324219 22.160156 18.261719 22.195312 18.121094 22.285156 C 16.929688 23.058594 15.910156 23.6875 14.542969 24.320312 C 14.066406 24.355469 13.597656 24.429688 13.132812 24.558594 C 13.238281 24.515625 13.339844 24.472656 13.445312 24.429688 C 15.242188 23.664062 16.808594 22.683594 17.878906 21.8125 C 18.257812 21.511719 18.492188 21.289062 18.640625 21.148438 C 18.785156 21.011719 18.839844 20.953125 18.839844 20.953125 C 18.839844 20.953125 18.769531 20.996094 18.601562 21.109375 C 18.519531 21.167969 18.410156 21.246094 18.273438 21.339844 C 18.136719 21.4375 17.96875 21.546875 17.765625 21.683594 C 16.464844 22.566406 14.917969 23.4375 13.269531 24.136719 C 10.875 25.148438 9.191406 25.488281 7.515625 25.929688 C 7.679688 25.902344 9.328125 25.917969 12.09375 24.949219 C 11.742188 25.121094 11.394531 25.339844 11.078125 25.597656 C 10.097656 25.878906 10.066406 25.863281 8.757812 26.195312 C 8.851562 26.183594 9.492188 26.167969 10.75 25.894531 C 10.4375 26.207031 10.175781 26.5625 10 26.957031 C 6.464844 27.308594 4.253906 25.996094 4.007812 25.910156 Z M 1.574219 22.914062 C 2.0625 23.773438 3.195312 24.070312 4.152344 24.171875 C 5.066406 24.265625 5.957031 24.277344 6.808594 24.230469 C 6.488281 24.277344 6.140625 24.320312 5.757812 24.34375 C 4.894531 24.402344 4.207031 24.351562 3.671875 24.269531 C 3.132812 24.191406 2.746094 24.082031 2.464844 24 C 2.324219 23.957031 2.210938 23.921875 2.121094 23.886719 C 2.027344 23.859375 1.957031 23.832031 1.902344 23.8125 C 1.796875 23.777344 1.757812 23.765625 1.757812 23.765625 C 1.757812 23.765625 1.804688 23.796875 1.921875 23.867188 C 2.035156 23.933594 2.226562 24.035156 2.519531 24.15625 C 2.816406 24.277344 3.21875 24.410156 3.761719 24.507812 C 4.300781 24.601562 4.984375 24.65625 5.808594 24.601562 C 6.632812 24.542969 7.59375 24.386719 8.804688 24.027344 C 11.191406 23.652344 13.09375 22.921875 14.039062 22.496094 C 11.542969 23.753906 7.355469 25.46875 4.660156 25.4375 C 2.550781 25.410156 0.378906 24.246094 1.574219 22.914062 Z M 1.847656 21.820312 C 1.898438 20.914062 2.535156 20.429688 3.125 19.878906 C 4.121094 20.140625 5.753906 20.28125 6.785156 20.34375 C 4.652344 20.398438 4.765625 20.476562 4.667969 20.488281 C 4.679688 20.488281 7.152344 20.945312 9.9375 20.449219 C 11.113281 20.460938 12.355469 20.4375 13.589844 20.371094 C 12.039062 20.625 10.722656 20.765625 9.691406 20.863281 C 8.414062 20.976562 7.488281 21.015625 7 21.042969 C 7.21875 21.046875 8.1875 21.101562 9.703125 21.050781 C 12.148438 20.96875 14.679688 20.714844 17.050781 20.105469 C 17.210938 20.0625 17.371094 20.019531 17.53125 19.980469 C 17.066406 20.097656 16.574219 20.394531 16.128906 20.578125 C 14.078125 21.355469 12.3125 21.949219 9.652344 22.425781 C 7.992188 22.71875 6.660156 22.824219 5.601562 22.878906 C 5.472656 22.886719 5.34375 22.894531 5.21875 22.902344 C 5.097656 22.90625 4.976562 22.90625 4.863281 22.910156 C 4.632812 22.917969 4.414062 22.925781 4.21875 22.929688 C 2.804688 22.953125 2.546875 22.5625 2.199219 21.988281 C 2.34375 22.597656 2.804688 22.921875 3.382812 23.058594 C 4.15625 23.246094 7.386719 23.214844 9.769531 22.746094 C 12.269531 22.296875 14.207031 21.644531 16.210938 20.722656 C 16.496094 20.582031 16.730469 20.464844 16.925781 20.367188 C 17.117188 20.265625 17.269531 20.179688 17.382812 20.113281 C 17.515625 20.039062 17.601562 19.988281 17.648438 19.960938 C 17.691406 19.953125 17.730469 19.949219 17.773438 19.941406 C 11.863281 23.792969 5.898438 24.222656 3.367188 23.542969 C 2.527344 23.320312 1.792969 22.78125 1.847656 21.820312 Z M 21.027344 20.273438 C 21.839844 21.570312 22.78125 22.53125 23.949219 23.335938 C 23.867188 23.34375 23.160156 23.226562 21.675781 23.800781 C 20.140625 24.390625 19.636719 24.640625 17.730469 24.476562 C 18.25 24.117188 18.742188 23.734375 19.214844 23.335938 C 19.808594 22.828125 20.199219 22.167969 20.503906 21.460938 C 20.78125 20.824219 20.957031 20.429688 21.027344 20.273438 Z M 0.996094 18.570312 C 0.808594 17.941406 1.761719 17.699219 2.132812 17.472656 C 4.265625 16.15625 2.898438 15.574219 8.464844 14.210938 C 11.226562 13.535156 14.417969 13.664062 17.019531 14.871094 C 17.824219 15.246094 18.535156 15.78125 19.195312 16.367188 C 19.53125 16.667969 19.839844 17.011719 20.1875 17.296875 C 20.464844 17.523438 21.191406 18.121094 20.886719 18.554688 C 20.773438 18.710938 20.476562 18.75 20.308594 18.800781 C 19.972656 18.898438 19.628906 18.980469 19.289062 19.0625 C 17.933594 19.386719 16.554688 19.621094 15.164062 19.765625 C 13.332031 19.953125 5.785156 20.285156 2.902344 19.273438 C 2.542969 19.144531 1.121094 18.980469 0.996094 18.570312 Z M 17.066406 14.320312 C 15.933594 13.8125 14.785156 13.539062 13.5625 13.390625 C 14.152344 13.359375 14.816406 13.285156 15.542969 13.152344 C 16.03125 13.53125 16.539062 13.921875 17.066406 14.320312 Z M 4.203125 5.925781 C 4.078125 5.085938 4.019531 4.191406 4.070312 3.363281 C 4.082031 3.363281 10.714844 2.144531 16.46875 6.96875 C 17.535156 7.863281 19.167969 10.117188 19.625 10.539062 C 19.152344 11.289062 19.578125 11.902344 19.234375 13.136719 C 19.175781 13.355469 18.71875 15.058594 18.847656 15.15625 C 18.441406 14.855469 18.035156 14.554688 17.628906 14.257812 C 17.410156 14.097656 17.382812 14.058594 17.402344 13.777344 C 17.417969 13.554688 17.460938 13.335938 17.476562 13.113281 C 17.5 12.730469 17.507812 12.351562 17.496094 11.96875 C 17.472656 11.210938 17.386719 10.4375 17.199219 9.703125 C 17.148438 9.503906 17.121094 9.398438 17.121094 9.398438 C 17.121094 9.398438 17.132812 9.507812 17.15625 9.710938 C 17.289062 11.097656 17.296875 12.378906 17.09375 13.855469 C 16.183594 13.175781 15.320312 12.515625 14.511719 11.886719 C 14.609375 8.890625 13.753906 6.753906 13.730469 6.664062 C 13.765625 6.882812 14.289062 8.953125 14.210938 11.652344 C 13.070312 10.765625 12.03125 9.9375 11.097656 9.179688 C 10.441406 6.808594 9.457031 5.457031 9.402344 5.351562 C 9.507812 5.609375 10.148438 6.984375 10.683594 8.839844 C 8.1875 6.804688 6.644531 5.460938 4.949219 3.992188 C 5.238281 4.265625 6.488281 5.488281 8.550781 7.328125 C 6.820312 7.058594 5.714844 6.691406 5.058594 6.511719 C 5.214844 6.570312 6.296875 7.167969 8.707031 7.519531 C 11.089844 9.542969 12.238281 10.496094 12.25 10.503906 C 9.660156 10.726562 7.726562 10.277344 7.511719 10.253906 C 7.585938 10.269531 9.675781 11.058594 12.53125 10.789062 C 12.53125 10.789062 14.253906 12.140625 15.21875 12.898438 C 15.058594 12.773438 14.53125 13.097656 12.691406 13.207031 C 9.878906 13.378906 9.800781 13.464844 9.691406 13.40625 C 9.429688 13.261719 9.15625 13.136719 8.902344 12.980469 C 6.339844 11.414062 4.648438 8.859375 4.203125 5.925781 Z M 20.660156 0.519531 C 21.230469 0.863281 27.183594 1.96875 29.6875 11.296875 C 27.976562 10.257812 26.59375 10.039062 25.40625 10.011719 C 25.664062 9.710938 25.855469 9.398438 25.996094 9.109375 C 26.167969 8.746094 26.261719 8.410156 26.3125 8.140625 C 26.367188 7.867188 26.375 7.652344 26.382812 7.511719 C 26.382812 7.367188 26.378906 7.292969 26.378906 7.292969 C 26.378906 7.292969 26.363281 7.367188 26.335938 7.503906 C 26.304688 7.644531 26.257812 7.847656 26.171875 8.101562 C 26 8.605469 25.671875 9.328125 24.992188 10.007812 C 24.597656 10.011719 24.226562 10.027344 23.871094 10.03125 C 23.160156 8.273438 23.453125 8.761719 23.886719 7.382812 C 24.0625 6.824219 24.167969 6.242188 24.191406 5.660156 C 24.207031 5.300781 24.1875 5.023438 24.171875 4.839844 C 24.152344 4.65625 24.136719 4.558594 24.136719 4.558594 C 24.136719 4.558594 24.132812 4.65625 24.125 4.839844 C 24.113281 5.023438 24.097656 5.296875 24.046875 5.644531 C 23.949219 6.296875 23.738281 7.238281 23.1875 8.277344 C 21.859375 4.699219 21.167969 1.792969 21.0625 1.429688 C 21.089844 1.558594 21.347656 3.460938 22.109375 6.125 C 20.5 4.601562 19.492188 3.796875 19.492188 3.796875 C 19.492188 3.796875 20.464844 4.941406 22.285156 6.71875 C 22.578125 7.6875 22.945312 8.769531 23.40625 9.945312 C 20.972656 9.359375 19.683594 7.785156 19.597656 7.730469 C 19.667969 7.785156 20.453125 9.125 22.4375 9.941406 C 21.425781 9.832031 20.585938 9.703125 19.992188 10.132812 C 19.707031 9.535156 19.082031 8.855469 18.4375 8.183594 C 18.761719 2.726562 20.234375 1.503906 20.660156 0.519531 Z M 33.152344 14.464844 C 31.304688 12.183594 30.320312 11.980469 30.328125 11.714844 C 30.390625 9.902344 27.375 2.167969 20.460938 0.0351562 C 20.460938 0.0351562 17.757812 4.277344 17.949219 7.804688 C 17.652344 7.523438 17.230469 7.03125 16.914062 6.773438 C 12.59375 3.257812 7.085938 2.285156 3.832031 3.136719 C 3.105469 6.472656 4.503906 10.878906 8.371094 13.375 C 8.46875 13.4375 8.574219 13.507812 8.683594 13.574219 C 8.484375 13.449219 4.941406 14.308594 3.214844 15.859375 C 2.925781 16.117188 2.648438 16.550781 2.363281 16.796875 C 2.09375 17.027344 1.617188 17.222656 1.308594 17.394531 C 0.632812 17.773438 0 18.269531 0.609375 19.035156 C 0.863281 19.359375 2.164062 19.539062 2.570312 19.699219 C 1.605469 20.390625 1.03125 21.695312 1.488281 22.746094 C 1.472656 22.746094 1.457031 22.75 1.441406 22.757812 C 0.355469 23.332031 0.753906 24.671875 1.640625 25.214844 C 1.992188 25.429688 2.371094 25.589844 2.769531 25.703125 C 4.179688 26.824219 6.839844 27.722656 9.828125 27.476562 C 9.058594 30.019531 12.589844 31.242188 15.269531 31.507812 C 21.054688 32.074219 24.078125 29.441406 24.179688 29.371094 C 25.976562 28.070312 27.730469 26.453125 26.363281 24.601562 C 28.132812 25.289062 29.863281 25.480469 31.753906 25.375 C 32.773438 25.320312 34.132812 24.683594 33.726562 23.453125 C 34.648438 22.960938 35.699219 22.960938 36.210938 21.886719 C 37.007812 20.226562 34.496094 16.125 33.152344 14.464844 " fill-opacity="1" fill-rule="nonzero"/></g><path fill="#fcb42f" d="M 16.859375 18.972656 C 17.46875 18.867188 17.875 18.777344 18.125 18.71875 C 18.378906 18.660156 18.480469 18.632812 18.480469 18.632812 C 18.480469 18.632812 18.375 18.644531 18.113281 18.679688 C 17.855469 18.714844 17.441406 18.769531 16.820312 18.847656 C 13.292969 19.265625 6.882812 19.554688 3.59375 18.070312 C 3.488281 18.023438 3.398438 17.972656 3.316406 17.929688 C 3.234375 17.886719 3.160156 17.851562 3.097656 17.816406 C 3.035156 17.78125 2.980469 17.75 2.9375 17.722656 C 2.75 17.613281 2.683594 17.582031 2.683594 17.582031 C 2.683594 17.582031 2.769531 17.644531 2.972656 17.796875 C 5.953125 19.941406 13.308594 19.585938 16.859375 18.972656 " fill-opacity="1" fill-rule="nonzero"/><path fill="#fcb42f" d="M 25.621094 21.738281 C 25.007812 21.328125 24.277344 20.769531 23.507812 19.953125 C 21.90625 18.246094 21.5 17.089844 20.699219 15.492188 C 20.851562 15.9375 20.675781 16.117188 21.683594 18.09375 C 22.039062 18.710938 22.53125 19.449219 23.273438 20.234375 C 23.367188 20.34375 23.472656 20.4375 23.570312 20.53125 C 23.671875 20.628906 23.765625 20.722656 23.863281 20.8125 C 24.058594 20.980469 24.25 21.140625 24.433594 21.292969 C 24.621094 21.429688 24.804688 21.5625 24.972656 21.691406 C 25.152344 21.804688 25.320312 21.910156 25.480469 22.011719 C 27.058594 22.941406 28.058594 23.046875 28.160156 23.082031 C 28.160156 23.082031 28.097656 23.050781 27.933594 22.976562 C 27.09375 22.609375 26.472656 22.296875 25.621094 21.738281 " fill-opacity="1" fill-rule="nonzero"/><path fill="#fcb42f" d="M 20.425781 11.277344 C 20.363281 11.320312 20.347656 11.339844 20.347656 11.339844 C 20.527344 11.289062 20.660156 11.253906 20.859375 11.226562 C 21.460938 11.140625 22.058594 11.207031 22.894531 11.234375 C 25.0625 11.308594 25.609375 11.179688 25.609375 11.179688 C 25.292969 11.167969 21.453125 10.605469 20.425781 11.277344 " fill-opacity="1" fill-rule="nonzero"/><path fill="#fcb42f" d="M 20.898438 29.664062 C 20.042969 29.945312 18.949219 30.210938 17.578125 30.285156 C 15.539062 30.390625 13.65625 30.050781 11.835938 29.351562 C 11.695312 29.292969 11.582031 29.25 11.5 29.21875 C 11.328125 29.160156 11.269531 29.144531 11.269531 29.144531 C 11.269531 29.144531 11.34375 29.1875 11.53125 29.292969 C 11.625 29.34375 11.746094 29.414062 11.898438 29.496094 C 11.9375 29.515625 11.976562 29.539062 12.019531 29.5625 C 13.820312 30.363281 15.425781 30.746094 17.652344 30.621094 C 17.824219 30.617188 17.996094 30.59375 18.160156 30.574219 C 18.328125 30.558594 18.488281 30.539062 18.648438 30.523438 C 18.960938 30.46875 19.257812 30.414062 19.539062 30.359375 C 19.820312 30.289062 20.082031 30.21875 20.332031 30.15625 C 20.574219 30.074219 20.804688 29.996094 21.023438 29.921875 C 22.933594 29.191406 23.496094 28.566406 24.0625 28.160156 C 24.0625 28.160156 23.984375 28.203125 23.796875 28.316406 C 22.847656 28.882812 22.085938 29.261719 20.898438 29.664062 " fill-opacity="1" fill-rule="nonzero"/><path fill="#fcb42f" d="M 18.785156 28.460938 C 18.671875 28.484375 18.5625 28.507812 18.460938 28.53125 C 18.355469 28.550781 18.261719 28.566406 18.171875 28.582031 C 17.996094 28.617188 17.847656 28.640625 17.71875 28.664062 C 17.464844 28.710938 17.304688 28.730469 17.207031 28.757812 C 17.109375 28.777344 17.074219 28.792969 17.074219 28.792969 C 17.257812 28.808594 17.445312 28.832031 17.824219 28.824219 C 19.9375 28.757812 22.414062 27.894531 23.96875 26.308594 C 23.453125 26.609375 23.3125 26.691406 23.300781 26.699219 C 21.78125 27.597656 20.40625 28.109375 18.785156 28.460938 " fill-opacity="1" fill-rule="nonzero"/><path fill="#fcb42f" d="M 13.550781 25.835938 C 15.140625 25.550781 16.328125 26.0625 17.976562 26.210938 C 21.1875 26.492188 23.171875 25.261719 23.183594 25.257812 C 22.839844 25.328125 20.738281 26.121094 17.96875 25.871094 C 17.117188 25.792969 16.261719 25.597656 15.414062 25.53125 C 13.703125 25.386719 13.066406 25.976562 13.023438 25.988281 C 13.023438 25.988281 13.089844 25.96875 13.242188 25.917969 C 13.320312 25.890625 13.421875 25.871094 13.550781 25.835938 " fill-opacity="1" fill-rule="nonzero"/><path fill="#fcb42f" d="M 7.109375 15.273438 C 7.25 15.21875 7.429688 15.175781 7.640625 15.113281 C 10.304688 14.371094 12.503906 14.328125 15.121094 14.84375 C 16.757812 15.207031 17.492188 15.554688 18.054688 15.746094 C 17.898438 15.675781 17.015625 15.09375 15.144531 14.621094 C 12.757812 14.03125 9.976562 14.09375 7.460938 15.035156 C 7.363281 15.074219 7.273438 15.105469 7.195312 15.136719 C 7.117188 15.171875 7.046875 15.203125 6.984375 15.234375 C 6.859375 15.289062 6.765625 15.335938 6.695312 15.371094 C 6.550781 15.441406 6.503906 15.46875 6.503906 15.46875 C 6.503906 15.46875 6.578125 15.445312 6.757812 15.390625 C 6.847656 15.359375 6.960938 15.320312 7.109375 15.273438 " fill-opacity="1" fill-rule="nonzero"/><path fill="#fcb42f" d="M 21.40625 12.273438 C 22.042969 12.828125 20.726562 11.699219 22.632812 13.332031 C 26.003906 16.273438 28.441406 18.753906 31.445312 22.664062 C 31.828125 23.15625 32.082031 23.480469 32.238281 23.6875 C 32.398438 23.890625 32.46875 23.96875 32.46875 23.96875 C 32.46875 23.96875 32.417969 23.875 32.285156 23.652344 C 32.148438 23.425781 31.933594 23.066406 31.582031 22.542969 C 29.503906 19.390625 26.8125 16.523438 23.898438 14.074219 C 23.71875 13.929688 23.550781 13.800781 23.398438 13.675781 C 22.351562 12.839844 21.417969 12.285156 21.40625 12.273438 " fill-opacity="1" fill-rule="nonzero"/></svg>